#N canvas 729 135 450 300 10;
#X floatatom 288 36 5 0 99 0 - - -;
#X obj 288 63 + 1;
#N canvas 1 84 450 300 recip 0;
#X obj 121 33 inlet;
#X msg 121 65 1 \$1;
#X obj 121 97 /;
#X obj 121 129 outlet;
#X connect 0 0 1 0;
#X connect 1 0 2 0;
#X connect 2 0 3 0;
#X restore 246 103 pd recip;
#X obj 246 139 nbx 5 14 -1e+37 1e+37 0 0 empty empty empty 0 -8 0 10
-262144 -1 -1 1 256;
#X obj 329 139 nbx 5 14 -1e+37 1e+37 0 0 empty empty empty 0 -8 0 10
-262144 -1 -1 1 256;
#X floatatom 85 36 5 0 99 0 - - -;
#X obj 43 70 + 1;
#N canvas 1 84 450 300 recip 0;
#X obj 121 33 inlet;
#X msg 121 65 1 \$1;
#X obj 121 97 /;
#X obj 121 129 outlet;
#X connect 0 0 1 0;
#X connect 1 0 2 0;
#X connect 2 0 3 0;
#X restore 43 103 pd recip;
#X obj 43 139 nbx 5 14 -1e+37 1e+37 0 0 empty empty empty 0 -8 0 10
-262144 -1 -1 1 256;
#X obj 126 139 nbx 5 14 -1e+37 1e+37 0 0 empty empty empty 0 -8 0 10
-262144 -1 -1 1 256;
#X obj 126 70 + 1;
#X connect 0 0 1 0;
#X connect 1 0 2 0;
#X connect 1 0 4 0;
#X connect 2 0 3 0;
#X connect 5 0 6 0;
#X connect 5 0 10 0;
#X connect 6 0 7 0;
#X connect 7 0 8 0;
#X connect 10 0 9 0;
